<mxfile host="Electron" agent="Mozilla/5.0 (Macintosh; Intel Mac OS X 10_15_7) AppleWebKit/537.36 (KHTML, like Gecko) draw.io/27.0.5 Chrome/134.0.6998.205 Electron/35.3.0 Safari/537.36" version="27.0.5">
  <diagram name="Page-1" id="c7558073-3199-34d8-9f00-42111426c3f3">
    <mxGraphModel dx="1455" dy="1125" grid="1" gridSize="10" guides="1" tooltips="1" connect="1" arrows="1" fold="1" page="1" pageScale="1" pageWidth="826" pageHeight="1169" background="none" math="1" shadow="0">
      <root>
        <mxCell id="0" />
        <mxCell id="1" parent="0" />
        <mxCell id="1W3b3c9c0iF8S0SqJw5X-147" style="edgeStyle=none;curved=1;rounded=0;sketch=1;hachureGap=4;jiggle=2;curveFitting=1;orthogonalLoop=1;jettySize=auto;html=1;exitX=0.5;exitY=1;exitDx=0;exitDy=0;fontFamily=Architects Daughter;fontSource=https%3A%2F%2Ffonts.googleapis.com%2Fcss%3Ffamily%3DArchitects%2BDaughter;fontSize=12;startSize=8;endSize=8;entryX=0.5;entryY=0;entryDx=0;entryDy=0;" edge="1" parent="1" source="1W3b3c9c0iF8S0SqJw5X-145" target="1W3b3c9c0iF8S0SqJw5X-149">
          <mxGeometry relative="1" as="geometry">
            <mxPoint x="728" y="740" as="targetPoint" />
          </mxGeometry>
        </mxCell>
        <mxCell id="1W3b3c9c0iF8S0SqJw5X-148" value="Sum over all cohorts&lt;div&gt;and nominees/winners (with some weights?)&lt;/div&gt;" style="edgeLabel;html=1;align=center;verticalAlign=middle;resizable=0;points=[];fontSize=12;sketch=1;hachureGap=4;jiggle=2;curveFitting=1;fontFamily=Architects Daughter;fontSource=https%3A%2F%2Ffonts.googleapis.com%2Fcss%3Ffamily%3DArchitects%2BDaughter;" vertex="1" connectable="0" parent="1W3b3c9c0iF8S0SqJw5X-147">
          <mxGeometry x="0.0111" y="1" relative="1" as="geometry">
            <mxPoint as="offset" />
          </mxGeometry>
        </mxCell>
        <mxCell id="1W3b3c9c0iF8S0SqJw5X-145" value="&lt;i&gt;&lt;b&gt;For each cohort:&lt;/b&gt;&lt;/i&gt;&lt;div&gt;`i` labels a book in the cohort&lt;/div&gt;" style="whiteSpace=wrap;html=1;aspect=fixed;sketch=1;hachureGap=4;jiggle=2;curveFitting=1;fontFamily=Architects Daughter;fontSource=https%3A%2F%2Ffonts.googleapis.com%2Fcss%3Ffamily%3DArchitects%2BDaughter;container=1;fillColor=#fff2cc;strokeColor=#d6b656;glass=0;" vertex="1" parent="1">
          <mxGeometry x="385.25" y="330" width="416.5" height="360" as="geometry" />
        </mxCell>
        <mxCell id="1W3b3c9c0iF8S0SqJw5X-131" value="Softmax&lt;div&gt;within&lt;/div&gt;&lt;div&gt;Cohort&lt;/div&gt;" style="rhombus;whiteSpace=wrap;html=1;sketch=1;hachureGap=4;jiggle=2;curveFitting=1;fontFamily=Architects Daughter;fontSource=https%3A%2F%2Ffonts.googleapis.com%2Fcss%3Ffamily%3DArchitects%2BDaughter;" vertex="1" parent="1W3b3c9c0iF8S0SqJw5X-145">
          <mxGeometry x="40" y="105" width="80" height="80" as="geometry" />
        </mxCell>
        <mxCell id="1W3b3c9c0iF8S0SqJw5X-136" value="Loss function (Multinomial Cross-entropy)&lt;div&gt;&lt;div&gt;`L = - \sum_i \hat{p}_i \log(p_i)`&lt;/div&gt;&lt;/div&gt;" style="ellipse;whiteSpace=wrap;html=1;sketch=1;hachureGap=4;jiggle=2;curveFitting=1;fontFamily=Architects Daughter;fontSource=https%3A%2F%2Ffonts.googleapis.com%2Fcss%3Ffamily%3DArchitects%2BDaughter;" vertex="1" parent="1W3b3c9c0iF8S0SqJw5X-145">
          <mxGeometry x="156.5" y="215" width="220" height="130" as="geometry" />
        </mxCell>
        <mxCell id="1W3b3c9c0iF8S0SqJw5X-134" value="Predicted &quot;Win Probabilty&quot;&lt;div&gt;`\hat{p}_i`&lt;/div&gt;" style="ellipse;whiteSpace=wrap;html=1;aspect=fixed;sketch=1;hachureGap=4;jiggle=2;curveFitting=1;fontFamily=Architects Daughter;fontSource=https%3A%2F%2Ffonts.googleapis.com%2Fcss%3Ffamily%3DArchitects%2BDaughter;" vertex="1" parent="1W3b3c9c0iF8S0SqJw5X-145">
          <mxGeometry x="40" y="245" width="80" height="80" as="geometry" />
        </mxCell>
        <mxCell id="1W3b3c9c0iF8S0SqJw5X-138" style="edgeStyle=none;curved=1;rounded=0;sketch=1;hachureGap=4;jiggle=2;curveFitting=1;orthogonalLoop=1;jettySize=auto;html=1;exitX=0.913;exitY=0.669;exitDx=0;exitDy=0;fontFamily=Architects Daughter;fontSource=https%3A%2F%2Ffonts.googleapis.com%2Fcss%3Ffamily%3DArchitects%2BDaughter;fontSize=12;startSize=8;endSize=8;exitPerimeter=0;" edge="1" parent="1W3b3c9c0iF8S0SqJw5X-145" source="1W3b3c9c0iF8S0SqJw5X-134">
          <mxGeometry relative="1" as="geometry">
            <mxPoint x="160" y="285" as="targetPoint" />
          </mxGeometry>
        </mxCell>
        <mxCell id="1W3b3c9c0iF8S0SqJw5X-141" value="Empirical&lt;div&gt;&quot;Win probabilty&quot;&lt;/div&gt;&lt;div&gt;`p_i`&lt;/div&gt;" style="ellipse;whiteSpace=wrap;html=1;aspect=fixed;sketch=1;hachureGap=4;jiggle=2;curveFitting=1;fontFamily=Architects Daughter;fontSource=https%3A%2F%2Ffonts.googleapis.com%2Fcss%3Ffamily%3DArchitects%2BDaughter;" vertex="1" parent="1W3b3c9c0iF8S0SqJw5X-145">
          <mxGeometry x="256.5" y="75" width="80" height="80" as="geometry" />
        </mxCell>
        <mxCell id="1W3b3c9c0iF8S0SqJw5X-143" style="edgeStyle=none;curved=1;rounded=0;sketch=1;hachureGap=4;jiggle=2;curveFitting=1;orthogonalLoop=1;jettySize=auto;html=1;exitX=0.5;exitY=1;exitDx=0;exitDy=0;fontFamily=Architects Daughter;fontSource=https%3A%2F%2Ffonts.googleapis.com%2Fcss%3Ffamily%3DArchitects%2BDaughter;fontSize=12;startSize=8;endSize=8;" edge="1" parent="1W3b3c9c0iF8S0SqJw5X-145" source="1W3b3c9c0iF8S0SqJw5X-141" target="1W3b3c9c0iF8S0SqJw5X-136">
          <mxGeometry relative="1" as="geometry" />
        </mxCell>
        <mxCell id="1W3b3c9c0iF8S0SqJw5X-129" value="Yearly cohorts" style="ellipse;whiteSpace=wrap;html=1;sketch=1;hachureGap=4;jiggle=2;curveFitting=1;fontFamily=Architects Daughter;fontSource=https%3A%2F%2Ffonts.googleapis.com%2Fcss%3Ffamily%3DArchitects%2BDaughter;" vertex="1" parent="1W3b3c9c0iF8S0SqJw5X-145">
          <mxGeometry x="120" y="15" width="120" height="80" as="geometry" />
        </mxCell>
        <mxCell id="1W3b3c9c0iF8S0SqJw5X-135" style="edgeStyle=none;curved=1;rounded=0;sketch=1;hachureGap=4;jiggle=2;curveFitting=1;orthogonalLoop=1;jettySize=auto;html=1;entryX=0.5;entryY=0;entryDx=0;entryDy=0;fontFamily=Architects Daughter;fontSource=https%3A%2F%2Ffonts.googleapis.com%2Fcss%3Ffamily%3DArchitects%2BDaughter;fontSize=12;startSize=8;endSize=8;" edge="1" parent="1W3b3c9c0iF8S0SqJw5X-145" source="1W3b3c9c0iF8S0SqJw5X-131" target="1W3b3c9c0iF8S0SqJw5X-134">
          <mxGeometry relative="1" as="geometry" />
        </mxCell>
        <mxCell id="1W3b3c9c0iF8S0SqJw5X-133" style="edgeStyle=none;curved=1;rounded=0;sketch=1;hachureGap=4;jiggle=2;curveFitting=1;orthogonalLoop=1;jettySize=auto;html=1;fontFamily=Architects Daughter;fontSource=https%3A%2F%2Ffonts.googleapis.com%2Fcss%3Ffamily%3DArchitects%2BDaughter;fontSize=12;startSize=8;endSize=8;" edge="1" parent="1W3b3c9c0iF8S0SqJw5X-145" source="1W3b3c9c0iF8S0SqJw5X-129" target="1W3b3c9c0iF8S0SqJw5X-131">
          <mxGeometry relative="1" as="geometry" />
        </mxCell>
        <mxCell id="1W3b3c9c0iF8S0SqJw5X-142" style="edgeStyle=none;curved=1;rounded=0;sketch=1;hachureGap=4;jiggle=2;curveFitting=1;orthogonalLoop=1;jettySize=auto;html=1;fontFamily=Architects Daughter;fontSource=https%3A%2F%2Ffonts.googleapis.com%2Fcss%3Ffamily%3DArchitects%2BDaughter;fontSize=12;startSize=8;endSize=8;" edge="1" parent="1W3b3c9c0iF8S0SqJw5X-145" source="1W3b3c9c0iF8S0SqJw5X-129" target="1W3b3c9c0iF8S0SqJw5X-141">
          <mxGeometry relative="1" as="geometry" />
        </mxCell>
        <mxCell id="1W3b3c9c0iF8S0SqJw5X-146" value="&lt;i&gt;For nominees&lt;/i&gt;&lt;div&gt;&lt;i&gt;or winners&lt;/i&gt;&lt;/div&gt;" style="ellipse;shape=cloud;whiteSpace=wrap;html=1;sketch=1;hachureGap=4;jiggle=2;curveFitting=1;fontFamily=Architects Daughter;fontSource=https%3A%2F%2Ffonts.googleapis.com%2Fcss%3Ffamily%3DArchitects%2BDaughter;fillColor=#f5f5f5;fontColor=#333333;strokeColor=#666666;shadow=0;" vertex="1" parent="1W3b3c9c0iF8S0SqJw5X-145">
          <mxGeometry x="296.5" y="-5" width="120" height="80" as="geometry" />
        </mxCell>
        <mxCell id="1W3b3c9c0iF8S0SqJw5X-113" style="edgeStyle=none;curved=1;rounded=0;sketch=1;hachureGap=4;jiggle=2;curveFitting=1;orthogonalLoop=1;jettySize=auto;html=1;exitX=0.75;exitY=1;exitDx=0;exitDy=0;fontFamily=Architects Daughter;fontSource=https%3A%2F%2Ffonts.googleapis.com%2Fcss%3Ffamily%3DArchitects%2BDaughter;fontSize=12;startSize=8;endSize=8;" edge="1" parent="1" source="1W3b3c9c0iF8S0SqJw5X-99" target="1W3b3c9c0iF8S0SqJw5X-112">
          <mxGeometry relative="1" as="geometry" />
        </mxCell>
        <mxCell id="1W3b3c9c0iF8S0SqJw5X-99" value="Bibliographic&lt;div&gt;Data&lt;/div&gt;" style="shape=parallelogram;html=1;strokeWidth=2;perimeter=parallelogramPerimeter;whiteSpace=wrap;rounded=1;arcSize=12;size=0.23;sketch=1;hachureGap=4;jiggle=2;curveFitting=1;fontFamily=Architects Daughter;fontSource=https%3A%2F%2Ffonts.googleapis.com%2Fcss%3Ffamily%3DArchitects%2BDaughter;" vertex="1" parent="1">
          <mxGeometry x="210" y="50" width="150" height="50" as="geometry" />
        </mxCell>
        <mxCell id="1W3b3c9c0iF8S0SqJw5X-110" style="edgeStyle=none;curved=1;rounded=0;sketch=1;hachureGap=4;jiggle=2;curveFitting=1;orthogonalLoop=1;jettySize=auto;html=1;fontFamily=Architects Daughter;fontSource=https%3A%2F%2Ffonts.googleapis.com%2Fcss%3Ffamily%3DArchitects%2BDaughter;fontSize=12;startSize=8;endSize=8;" edge="1" parent="1" source="1W3b3c9c0iF8S0SqJw5X-101" target="1W3b3c9c0iF8S0SqJw5X-99">
          <mxGeometry relative="1" as="geometry" />
        </mxCell>
        <mxCell id="1W3b3c9c0iF8S0SqJw5X-101" value="Goodreads" style="swimlane;fontStyle=0;childLayout=stackLayout;horizontal=1;startSize=20;fillColor=#ffffff;horizontalStack=0;resizeParent=1;resizeParentMax=0;resizeLast=0;collapsible=0;marginBottom=0;swimlaneFillColor=#ffffff;sketch=1;hachureGap=4;jiggle=2;curveFitting=1;fontFamily=Architects Daughter;fontSource=https%3A%2F%2Ffonts.googleapis.com%2Fcss%3Ffamily%3DArchitects%2BDaughter;" vertex="1" parent="1">
          <mxGeometry x="60" y="50" width="100" height="50" as="geometry" />
        </mxCell>
        <mxCell id="1W3b3c9c0iF8S0SqJw5X-115" style="edgeStyle=none;curved=1;rounded=0;sketch=1;hachureGap=4;jiggle=2;curveFitting=1;orthogonalLoop=1;jettySize=auto;html=1;fontFamily=Architects Daughter;fontSource=https%3A%2F%2Ffonts.googleapis.com%2Fcss%3Ffamily%3DArchitects%2BDaughter;fontSize=12;startSize=8;endSize=8;" edge="1" parent="1" source="1W3b3c9c0iF8S0SqJw5X-102" target="1W3b3c9c0iF8S0SqJw5X-112">
          <mxGeometry relative="1" as="geometry" />
        </mxCell>
        <mxCell id="1W3b3c9c0iF8S0SqJw5X-102" value="Open Library" style="swimlane;fontStyle=0;childLayout=stackLayout;horizontal=1;startSize=20;fillColor=#ffffff;horizontalStack=0;resizeParent=1;resizeParentMax=0;resizeLast=0;collapsible=0;marginBottom=0;swimlaneFillColor=#ffffff;sketch=1;hachureGap=4;jiggle=2;curveFitting=1;fontFamily=Architects Daughter;fontSource=https%3A%2F%2Ffonts.googleapis.com%2Fcss%3Ffamily%3DArchitects%2BDaughter;" vertex="1" parent="1">
          <mxGeometry x="180" y="165" width="100" height="50" as="geometry" />
        </mxCell>
        <mxCell id="1W3b3c9c0iF8S0SqJw5X-116" style="edgeStyle=none;curved=1;rounded=0;sketch=1;hachureGap=4;jiggle=2;curveFitting=1;orthogonalLoop=1;jettySize=auto;html=1;fontFamily=Architects Daughter;fontSource=https%3A%2F%2Ffonts.googleapis.com%2Fcss%3Ffamily%3DArchitects%2BDaughter;fontSize=12;startSize=8;endSize=8;" edge="1" parent="1" source="1W3b3c9c0iF8S0SqJw5X-103" target="1W3b3c9c0iF8S0SqJw5X-112">
          <mxGeometry relative="1" as="geometry" />
        </mxCell>
        <mxCell id="1W3b3c9c0iF8S0SqJw5X-103" value="Library of Congress" style="swimlane;fontStyle=0;childLayout=stackLayout;horizontal=1;startSize=20;fillColor=#ffffff;horizontalStack=0;resizeParent=1;resizeParentMax=0;resizeLast=0;collapsible=0;marginBottom=0;swimlaneFillColor=#ffffff;sketch=1;hachureGap=4;jiggle=2;curveFitting=1;fontFamily=Architects Daughter;fontSource=https%3A%2F%2Ffonts.googleapis.com%2Fcss%3Ffamily%3DArchitects%2BDaughter;" vertex="1" parent="1">
          <mxGeometry x="520" y="170" width="147" height="50" as="geometry" />
        </mxCell>
        <mxCell id="1W3b3c9c0iF8S0SqJw5X-114" style="edgeStyle=none;curved=1;rounded=0;sketch=1;hachureGap=4;jiggle=2;curveFitting=1;orthogonalLoop=1;jettySize=auto;html=1;entryX=0.75;entryY=0;entryDx=0;entryDy=0;fontFamily=Architects Daughter;fontSource=https%3A%2F%2Ffonts.googleapis.com%2Fcss%3Ffamily%3DArchitects%2BDaughter;fontSize=12;startSize=8;endSize=8;" edge="1" parent="1" source="1W3b3c9c0iF8S0SqJw5X-107" target="1W3b3c9c0iF8S0SqJw5X-112">
          <mxGeometry relative="1" as="geometry" />
        </mxCell>
        <mxCell id="1W3b3c9c0iF8S0SqJw5X-107" value="Award Winners&lt;div&gt;&amp;amp;&lt;/div&gt;&lt;div&gt;Nominees&lt;/div&gt;" style="shape=parallelogram;html=1;strokeWidth=2;perimeter=parallelogramPerimeter;whiteSpace=wrap;rounded=1;arcSize=12;size=0.23;sketch=1;hachureGap=4;jiggle=2;curveFitting=1;fontFamily=Architects Daughter;fontSource=https%3A%2F%2Ffonts.googleapis.com%2Fcss%3Ffamily%3DArchitects%2BDaughter;" vertex="1" parent="1">
          <mxGeometry x="427" y="50" width="197" height="55" as="geometry" />
        </mxCell>
        <mxCell id="1W3b3c9c0iF8S0SqJw5X-111" style="edgeStyle=none;curved=1;rounded=0;sketch=1;hachureGap=4;jiggle=2;curveFitting=1;orthogonalLoop=1;jettySize=auto;html=1;fontFamily=Architects Daughter;fontSource=https%3A%2F%2Ffonts.googleapis.com%2Fcss%3Ffamily%3DArchitects%2BDaughter;fontSize=12;startSize=8;endSize=8;" edge="1" parent="1" source="1W3b3c9c0iF8S0SqJw5X-108" target="1W3b3c9c0iF8S0SqJw5X-107">
          <mxGeometry relative="1" as="geometry" />
        </mxCell>
        <mxCell id="1W3b3c9c0iF8S0SqJw5X-108" value="Wikidata" style="swimlane;fontStyle=0;childLayout=stackLayout;horizontal=1;startSize=20;fillColor=#ffffff;horizontalStack=0;resizeParent=1;resizeParentMax=0;resizeLast=0;collapsible=0;marginBottom=0;swimlaneFillColor=#ffffff;sketch=1;hachureGap=4;jiggle=2;curveFitting=1;fontFamily=Architects Daughter;fontSource=https%3A%2F%2Ffonts.googleapis.com%2Fcss%3Ffamily%3DArchitects%2BDaughter;" vertex="1" parent="1">
          <mxGeometry x="690" y="55" width="100" height="50" as="geometry" />
        </mxCell>
        <mxCell id="1W3b3c9c0iF8S0SqJw5X-118" style="edgeStyle=none;curved=1;rounded=0;sketch=1;hachureGap=4;jiggle=2;curveFitting=1;orthogonalLoop=1;jettySize=auto;html=1;entryX=0.5;entryY=0;entryDx=0;entryDy=0;fontFamily=Architects Daughter;fontSource=https%3A%2F%2Ffonts.googleapis.com%2Fcss%3Ffamily%3DArchitects%2BDaughter;fontSize=12;startSize=8;endSize=8;" edge="1" parent="1" source="1W3b3c9c0iF8S0SqJw5X-112" target="1W3b3c9c0iF8S0SqJw5X-117">
          <mxGeometry relative="1" as="geometry" />
        </mxCell>
        <mxCell id="1W3b3c9c0iF8S0SqJw5X-112" value="Combine, Clean,&lt;div&gt;&amp;amp; Fill Missing&lt;/div&gt;" style="shape=process;whiteSpace=wrap;html=1;backgroundOutline=1;sketch=1;hachureGap=4;jiggle=2;curveFitting=1;fontFamily=Architects Daughter;fontSource=https%3A%2F%2Ffonts.googleapis.com%2Fcss%3Ffamily%3DArchitects%2BDaughter;" vertex="1" parent="1">
          <mxGeometry x="340" y="160" width="120" height="60" as="geometry" />
        </mxCell>
        <mxCell id="1W3b3c9c0iF8S0SqJw5X-130" style="edgeStyle=none;curved=1;rounded=0;sketch=1;hachureGap=4;jiggle=2;curveFitting=1;orthogonalLoop=1;jettySize=auto;html=1;exitX=1;exitY=0.5;exitDx=0;exitDy=0;entryX=0;entryY=0.5;entryDx=0;entryDy=0;fontFamily=Architects Daughter;fontSource=https%3A%2F%2Ffonts.googleapis.com%2Fcss%3Ffamily%3DArchitects%2BDaughter;fontSize=12;startSize=8;endSize=8;" edge="1" parent="1" source="1W3b3c9c0iF8S0SqJw5X-117" target="1W3b3c9c0iF8S0SqJw5X-129">
          <mxGeometry relative="1" as="geometry" />
        </mxCell>
        <mxCell id="1W3b3c9c0iF8S0SqJw5X-117" value="Book Data Set" style="shape=parallelogram;html=1;strokeWidth=2;perimeter=parallelogramPerimeter;whiteSpace=wrap;rounded=1;arcSize=12;size=0.23;sketch=1;hachureGap=4;jiggle=2;curveFitting=1;fontFamily=Architects Daughter;fontSource=https%3A%2F%2Ffonts.googleapis.com%2Fcss%3Ffamily%3DArchitects%2BDaughter;" vertex="1" parent="1">
          <mxGeometry x="310" y="260" width="180" height="50" as="geometry" />
        </mxCell>
        <mxCell id="1W3b3c9c0iF8S0SqJw5X-127" style="edgeStyle=none;curved=1;rounded=0;sketch=1;hachureGap=4;jiggle=2;curveFitting=1;orthogonalLoop=1;jettySize=auto;html=1;exitX=0.692;exitY=1.008;exitDx=0;exitDy=0;fontFamily=Architects Daughter;fontSource=https%3A%2F%2Ffonts.googleapis.com%2Fcss%3Ffamily%3DArchitects%2BDaughter;fontSize=12;startSize=8;endSize=8;exitPerimeter=0;" edge="1" parent="1" source="1W3b3c9c0iF8S0SqJw5X-119" target="1W3b3c9c0iF8S0SqJw5X-126">
          <mxGeometry relative="1" as="geometry" />
        </mxCell>
        <mxCell id="1W3b3c9c0iF8S0SqJw5X-128" value="Outputs" style="edgeLabel;html=1;align=center;verticalAlign=middle;resizable=0;points=[];fontSize=12;sketch=1;hachureGap=4;jiggle=2;curveFitting=1;fontFamily=Architects Daughter;fontSource=https%3A%2F%2Ffonts.googleapis.com%2Fcss%3Ffamily%3DArchitects%2BDaughter;" vertex="1" connectable="0" parent="1W3b3c9c0iF8S0SqJw5X-127">
          <mxGeometry x="-0.4667" y="4" relative="1" as="geometry">
            <mxPoint y="1" as="offset" />
          </mxGeometry>
        </mxCell>
        <mxCell id="1W3b3c9c0iF8S0SqJw5X-119" value="Model" style="shape=process;whiteSpace=wrap;html=1;backgroundOutline=1;sketch=1;hachureGap=4;jiggle=2;curveFitting=1;fontFamily=Architects Daughter;fontSource=https%3A%2F%2Ffonts.googleapis.com%2Fcss%3Ffamily%3DArchitects%2BDaughter;" vertex="1" parent="1">
          <mxGeometry x="190" y="390" width="120" height="60" as="geometry" />
        </mxCell>
        <mxCell id="1W3b3c9c0iF8S0SqJw5X-120" style="edgeStyle=none;curved=1;rounded=0;sketch=1;hachureGap=4;jiggle=2;curveFitting=1;orthogonalLoop=1;jettySize=auto;html=1;entryX=0.4;entryY=0.025;entryDx=0;entryDy=0;entryPerimeter=0;fontFamily=Architects Daughter;fontSource=https%3A%2F%2Ffonts.googleapis.com%2Fcss%3Ffamily%3DArchitects%2BDaughter;fontSize=12;startSize=8;endSize=8;" edge="1" parent="1" source="1W3b3c9c0iF8S0SqJw5X-117" target="1W3b3c9c0iF8S0SqJw5X-119">
          <mxGeometry relative="1" as="geometry" />
        </mxCell>
        <mxCell id="1W3b3c9c0iF8S0SqJw5X-121" value="Training data" style="edgeLabel;html=1;align=center;verticalAlign=middle;resizable=0;points=[];fontSize=12;sketch=1;hachureGap=4;jiggle=2;curveFitting=1;fontFamily=Architects Daughter;fontSource=https%3A%2F%2Ffonts.googleapis.com%2Fcss%3Ffamily%3DArchitects%2BDaughter;" vertex="1" connectable="0" parent="1W3b3c9c0iF8S0SqJw5X-120">
          <mxGeometry x="-0.103" y="2" relative="1" as="geometry">
            <mxPoint as="offset" />
          </mxGeometry>
        </mxCell>
        <mxCell id="1W3b3c9c0iF8S0SqJw5X-123" style="edgeStyle=none;curved=1;rounded=0;sketch=1;hachureGap=4;jiggle=2;curveFitting=1;orthogonalLoop=1;jettySize=auto;html=1;entryX=0.25;entryY=0;entryDx=0;entryDy=0;fontFamily=Architects Daughter;fontSource=https%3A%2F%2Ffonts.googleapis.com%2Fcss%3Ffamily%3DArchitects%2BDaughter;fontSize=12;startSize=8;endSize=8;" edge="1" parent="1" source="1W3b3c9c0iF8S0SqJw5X-122" target="1W3b3c9c0iF8S0SqJw5X-119">
          <mxGeometry relative="1" as="geometry" />
        </mxCell>
        <mxCell id="1W3b3c9c0iF8S0SqJw5X-124" value="Training Data" style="edgeLabel;html=1;align=center;verticalAlign=middle;resizable=0;points=[];fontSize=12;sketch=1;hachureGap=4;jiggle=2;curveFitting=1;fontFamily=Architects Daughter;fontSource=https%3A%2F%2Ffonts.googleapis.com%2Fcss%3Ffamily%3DArchitects%2BDaughter;" vertex="1" connectable="0" parent="1W3b3c9c0iF8S0SqJw5X-123">
          <mxGeometry x="-0.4075" y="3" relative="1" as="geometry">
            <mxPoint as="offset" />
          </mxGeometry>
        </mxCell>
        <mxCell id="1W3b3c9c0iF8S0SqJw5X-122" value="World State" style="swimlane;fontStyle=0;childLayout=stackLayout;horizontal=1;startSize=20;fillColor=#ffffff;horizontalStack=0;resizeParent=1;resizeParentMax=0;resizeLast=0;collapsible=0;marginBottom=0;swimlaneFillColor=#ffffff;sketch=1;hachureGap=4;jiggle=2;curveFitting=1;fontFamily=Architects Daughter;fontSource=https%3A%2F%2Ffonts.googleapis.com%2Fcss%3Ffamily%3DArchitects%2BDaughter;" vertex="1" parent="1">
          <mxGeometry x="70" y="270" width="100" height="50" as="geometry" />
        </mxCell>
        <mxCell id="1W3b3c9c0iF8S0SqJw5X-132" style="edgeStyle=none;curved=1;rounded=0;sketch=1;hachureGap=4;jiggle=2;curveFitting=1;orthogonalLoop=1;jettySize=auto;html=1;exitX=1;exitY=0.5;exitDx=0;exitDy=0;entryX=0;entryY=0.5;entryDx=0;entryDy=0;fontFamily=Architects Daughter;fontSource=https%3A%2F%2Ffonts.googleapis.com%2Fcss%3Ffamily%3DArchitects%2BDaughter;fontSize=12;startSize=8;endSize=8;" edge="1" parent="1" source="1W3b3c9c0iF8S0SqJw5X-126" target="1W3b3c9c0iF8S0SqJw5X-131">
          <mxGeometry relative="1" as="geometry" />
        </mxCell>
        <mxCell id="1W3b3c9c0iF8S0SqJw5X-126" value="&quot;Award Worthiness&quot;&lt;div&gt;Score&lt;/div&gt;" style="ellipse;whiteSpace=wrap;html=1;aspect=fixed;sketch=1;hachureGap=4;jiggle=2;curveFitting=1;fontFamily=Architects Daughter;fontSource=https%3A%2F%2Ffonts.googleapis.com%2Fcss%3Ffamily%3DArchitects%2BDaughter;" vertex="1" parent="1">
          <mxGeometry x="300" y="510" width="80" height="80" as="geometry" />
        </mxCell>
        <mxCell id="1W3b3c9c0iF8S0SqJw5X-152" style="edgeStyle=none;curved=1;rounded=0;sketch=1;hachureGap=4;jiggle=2;curveFitting=1;orthogonalLoop=1;jettySize=auto;html=1;exitX=0;exitY=0.5;exitDx=0;exitDy=0;entryX=1;entryY=0.5;entryDx=0;entryDy=0;fontFamily=Architects Daughter;fontSource=https%3A%2F%2Ffonts.googleapis.com%2Fcss%3Ffamily%3DArchitects%2BDaughter;fontSize=12;startSize=8;endSize=8;" edge="1" parent="1" source="1W3b3c9c0iF8S0SqJw5X-149" target="1W3b3c9c0iF8S0SqJw5X-150">
          <mxGeometry relative="1" as="geometry" />
        </mxCell>
        <mxCell id="1W3b3c9c0iF8S0SqJw5X-149" value="Total Loss" style="ellipse;whiteSpace=wrap;html=1;aspect=fixed;sketch=1;hachureGap=4;jiggle=2;curveFitting=1;fontFamily=Architects Daughter;fontSource=https%3A%2F%2Ffonts.googleapis.com%2Fcss%3Ffamily%3DArchitects%2BDaughter;" vertex="1" parent="1">
          <mxGeometry x="560" y="790" width="80" height="80" as="geometry" />
        </mxCell>
        <mxCell id="1W3b3c9c0iF8S0SqJw5X-150" value="Train model" style="shape=process;whiteSpace=wrap;html=1;backgroundOutline=1;sketch=1;hachureGap=4;jiggle=2;curveFitting=1;fontFamily=Architects Daughter;fontSource=https%3A%2F%2Ffonts.googleapis.com%2Fcss%3Ffamily%3DArchitects%2BDaughter;" vertex="1" parent="1">
          <mxGeometry x="170" y="800" width="120" height="60" as="geometry" />
        </mxCell>
        <mxCell id="1W3b3c9c0iF8S0SqJw5X-154" style="edgeStyle=none;curved=1;rounded=0;sketch=1;hachureGap=4;jiggle=2;curveFitting=1;orthogonalLoop=1;jettySize=auto;html=1;exitX=0.5;exitY=0;exitDx=0;exitDy=0;entryX=0.383;entryY=0.925;entryDx=0;entryDy=0;entryPerimeter=0;fontFamily=Architects Daughter;fontSource=https%3A%2F%2Ffonts.googleapis.com%2Fcss%3Ffamily%3DArchitects%2BDaughter;fontSize=12;startSize=8;endSize=8;" edge="1" parent="1" source="1W3b3c9c0iF8S0SqJw5X-150" target="1W3b3c9c0iF8S0SqJw5X-119">
          <mxGeometry relative="1" as="geometry" />
        </mxCell>
      </root>
    </mxGraphModel>
  </diagram>
</mxfile>
